<?xml version="1.0" encoding="UTF-8"?>
<svg id="Livello_1" data-name="Livello 1" xmlns="http://www.w3.org/2000/svg" viewBox="0 0 106 60">
  <defs>
    <style>
      .cls-1 {
        letter-spacing: 0em;
      }

      .cls-2 {
        fill: #fff;
      }

      .cls-3 {
        letter-spacing: 0em;
      }

      .cls-4 {
        letter-spacing: 0em;
      }

      .cls-5 {
        fill: #d4c66d;
      }

      .cls-6 {
        font-size: 21px;
      }

      .cls-6, .cls-7 {
        fill: #624d15;
        font-family: AcuminConcept-Light, 'Acumin Variable Concept';
        font-variation-settings: 'wght' 300, 'wdth' 100, 'slnt' 0;
        font-weight: 300;
      }

      .cls-8 {
        fill: #3557b8;
      }

      .cls-9 {
        fill: #ba9753;
      }

      .cls-10 {
        fill: #9c8c4e;
      }

      .cls-11 {
        fill: #fff39f;
      }

      .cls-12 {
        letter-spacing: 0em;
      }

      .cls-7 {
        font-size: 12px;
      }

      .cls-13 {
        fill: #b8a65c;
      }

      .cls-14 {
        letter-spacing: 0em;
      }
    </style>
  </defs>
  <rect class="cls-11" x="0" y="0" width="106" height="60"/>
  <rect class="cls-5" x="34" y="0" width="68" height="60"/>
  <rect class="cls-9" x="1" y="2" width="6" height="5"/>
  <rect class="cls-8" x="9" y="2" width="7" height="5"/>
  <rect class="cls-8" x="93" y="40" width="7" height="7"/>
  <rect class="cls-10" x="51" y="22" width="36" height="34"/>
  <rect class="cls-13" x="68" y="0" width="17" height="22"/>
  <text class="cls-6" transform="translate(64.84 17.68)"><tspan class="cls-12" x="0" y="0">2</tspan><tspan class="cls-4" x="10.96" y="0">0</tspan><tspan class="cls-3" x="22.51" y="0">0</tspan></text>
  <rect class="cls-9" x="21" y="52" width="30" height="4"/>
  <rect class="cls-9" x="21" y="47" width="5" height="4"/>
  <g>
    <polygon class="cls-2" points="55.98 55.48 54.74 52.96 51.96 52.55 53.97 50.59 53.49 47.83 55.98 49.13 58.46 47.83 57.99 50.59 60 52.55 57.22 52.96 55.98 55.48"/>
    <g>
      <polygon class="cls-2" points="44.98 6.83 46.22 9.34 49 9.75 46.99 11.71 47.46 14.48 44.98 13.17 42.49 14.48 42.97 11.71 40.96 9.75 43.74 9.34 44.98 6.83"/>
      <polygon class="cls-2" points="55.98 9.83 57.22 12.34 60 12.75 57.99 14.71 58.46 17.48 55.98 16.17 53.49 17.48 53.97 14.71 51.96 12.75 54.74 12.34 55.98 9.83"/>
      <polygon class="cls-2" points="33.98 9.83 35.22 12.34 38 12.75 35.99 14.71 36.46 17.48 33.98 16.17 31.49 17.48 31.97 14.71 29.96 12.75 32.74 12.34 33.98 9.83"/>
      <polygon class="cls-2" points="44.98 58.48 43.74 55.96 40.96 55.55 42.97 53.59 42.49 50.83 44.98 52.13 47.46 50.83 46.99 53.59 49 55.55 46.22 55.96 44.98 58.48"/>
      <polygon class="cls-2" points="33.98 55.48 32.74 52.96 29.96 52.55 31.97 50.59 31.49 47.83 33.98 49.13 36.46 47.83 35.99 50.59 38 52.55 35.22 52.96 33.98 55.48"/>
      <polygon class="cls-2" points="18.65 33.15 21.17 31.91 21.57 29.13 23.54 31.14 26.3 30.66 25 33.15 26.3 35.64 23.54 35.16 21.57 37.17 21.17 34.39 18.65 33.15"/>
      <polygon class="cls-2" points="21.65 22.15 24.17 20.91 24.57 18.13 26.54 20.14 29.3 19.66 28 22.15 29.3 24.64 26.54 24.16 24.57 26.17 24.17 23.39 21.65 22.15"/>
      <polygon class="cls-2" points="21.65 44.15 24.17 42.91 24.57 40.13 26.54 42.14 29.3 41.66 28 44.15 29.3 46.64 26.54 46.16 24.57 48.17 24.17 45.39 21.65 44.15"/>
      <polygon class="cls-2" points="70.3 33.15 67.78 34.39 67.38 37.17 65.42 35.16 62.65 35.64 63.96 33.15 62.65 30.66 65.42 31.14 67.38 29.13 67.78 31.91 70.3 33.15"/>
      <polygon class="cls-2" points="67.3 44.15 64.78 45.39 64.38 48.17 62.42 46.16 59.65 46.64 60.96 44.15 59.65 41.66 62.42 42.14 64.38 40.13 64.78 42.91 67.3 44.15"/>
      <polygon class="cls-2" points="67.3 22.15 64.78 23.39 64.38 26.17 62.42 24.16 59.65 24.64 60.96 22.15 59.65 19.66 62.42 20.14 64.38 18.13 64.78 20.91 67.3 22.15"/>
    </g>
  </g>
  <text class="cls-7" transform="translate(.84 54.68)"><tspan class="cls-1" x="0" y="0">2</tspan><tspan class="cls-14" x="6.26" y="0">0</tspan><tspan x="12.86" y="0">0</tspan></text>
</svg>