<?xml version="1.0" encoding="UTF-8"?>
<svg id="Livello_1" data-name="Livello 1" xmlns="http://www.w3.org/2000/svg" viewBox="0 0 106 60">
  <defs>
    <style>
      .cls-1 {
        fill: #fff;
      }

      .cls-2 {
        letter-spacing: 0em;
      }

      .cls-3 {
        fill: #67a750;
      }

      .cls-4 {
        fill: #67b54f;
      }

      .cls-5 {
        letter-spacing: 0em;
      }

      .cls-6 {
        fill: #d2feaf;
      }

      .cls-7 {
        fill: #3557b8;
      }

      .cls-8 {
        fill: #549141;
      }

      .cls-9 {
        font-size: 12px;
      }

      .cls-9, .cls-10 {
        fill: #20550b;
        font-family: AcuminConcept-Light, 'Acumin Variable Concept';
        font-variation-settings: 'wght' 300, 'wdth' 100, 'slnt' 0;
        font-weight: 300;
      }

      .cls-10 {
        font-size: 21px;
      }

      .cls-11 {
        fill: #96cb71;
      }

      .cls-12 {
        letter-spacing: 0em;
      }

      .cls-13 {
        letter-spacing: 0em;
      }
    </style>
  </defs>
  <rect class="cls-6" x="0" y="0" width="106" height="60"/>
  <rect class="cls-11" x="34" y="0" width="68" height="60"/>
  <rect class="cls-3" x="1" y="2" width="6" height="5"/>
  <rect class="cls-7" x="9" y="2" width="7" height="5"/>
  <rect class="cls-7" x="93" y="40" width="7" height="7"/>
  <rect class="cls-8" x="51" y="22" width="36" height="34"/>
  <rect class="cls-4" x="68" y="0" width="17" height="22"/>
  <text class="cls-10" transform="translate(71.84 17.68)"><tspan class="cls-12" x="0" y="0">1</tspan><tspan class="cls-5" x="7.5" y="0">0</tspan><tspan x="19.05" y="0">0</tspan></text>
  <rect class="cls-3" x="21" y="52" width="30" height="4"/>
  <rect class="cls-3" x="21" y="47" width="5" height="4"/>
  <g>
    <polygon class="cls-1" points="60.98 55.48 59.74 52.96 56.96 52.55 58.97 50.59 58.49 47.83 60.98 49.13 63.46 47.83 62.99 50.59 65 52.55 62.22 52.96 60.98 55.48"/>
    <g>
      <polygon class="cls-1" points="49.98 6.83 51.22 9.34 54 9.75 51.99 11.71 52.46 14.48 49.98 13.17 47.49 14.48 47.97 11.71 45.96 9.75 48.74 9.34 49.98 6.83"/>
      <polygon class="cls-1" points="60.98 9.83 62.22 12.34 65 12.75 62.99 14.71 63.46 17.48 60.98 16.17 58.49 17.48 58.97 14.71 56.96 12.75 59.74 12.34 60.98 9.83"/>
      <polygon class="cls-1" points="38.98 9.83 40.22 12.34 43 12.75 40.99 14.71 41.46 17.48 38.98 16.17 36.49 17.48 36.97 14.71 34.96 12.75 37.74 12.34 38.98 9.83"/>
      <polygon class="cls-1" points="49.98 58.48 48.74 55.96 45.96 55.55 47.97 53.59 47.49 50.83 49.98 52.13 52.46 50.83 51.99 53.59 54 55.55 51.22 55.96 49.98 58.48"/>
      <polygon class="cls-1" points="38.98 55.48 37.74 52.96 34.96 52.55 36.97 50.59 36.49 47.83 38.98 49.13 41.46 47.83 40.99 50.59 43 52.55 40.22 52.96 38.98 55.48"/>
      <polygon class="cls-1" points="23.65 33.15 26.17 31.91 26.57 29.13 28.54 31.14 31.3 30.66 30 33.15 31.3 35.64 28.54 35.16 26.57 37.17 26.17 34.39 23.65 33.15"/>
      <polygon class="cls-1" points="26.65 22.15 29.17 20.91 29.57 18.13 31.54 20.14 34.3 19.66 33 22.15 34.3 24.64 31.54 24.16 29.57 26.17 29.17 23.39 26.65 22.15"/>
      <polygon class="cls-1" points="26.65 44.15 29.17 42.91 29.57 40.13 31.54 42.14 34.3 41.66 33 44.15 34.3 46.64 31.54 46.16 29.57 48.17 29.17 45.39 26.65 44.15"/>
      <polygon class="cls-1" points="75.3 33.15 72.78 34.39 72.38 37.17 70.42 35.16 67.65 35.64 68.96 33.15 67.65 30.66 70.42 31.14 72.38 29.13 72.78 31.91 75.3 33.15"/>
      <polygon class="cls-1" points="72.3 44.15 69.78 45.39 69.38 48.17 67.42 46.16 64.65 46.64 65.96 44.15 64.65 41.66 67.42 42.14 69.38 40.13 69.78 42.91 72.3 44.15"/>
      <polygon class="cls-1" points="72.3 22.15 69.78 23.39 69.38 26.17 67.42 24.16 64.65 24.64 65.96 22.15 64.65 19.66 67.42 20.14 69.38 18.13 69.78 20.91 72.3 22.15"/>
    </g>
  </g>
  <text class="cls-9" transform="translate(1.84 54.68)"><tspan class="cls-2" x="0" y="0">1</tspan><tspan class="cls-13" x="4.28" y="0">0</tspan><tspan x="10.88" y="0">0</tspan></text>
</svg>